<svg xmlns="http://www.w3.org/2000/svg" xmlns:xlink="http://www.w3.org/1999/xlink" width="1080" zoomAndPan="magnify" viewBox="0 0 810 809.999993" height="1080" preserveAspectRatio="xMidYMid meet" version="1.0"><path stroke-linecap="butt" transform="matrix(0.75, -0.000000000000000093, 0.000000000000000093, 0.75, 271.191933, 0.757401)" fill="none" stroke-linejoin="miter" d="M -0.000702409 21.00055 L 367.587858 21.00055 " stroke="#000000" stroke-width="42" stroke-opacity="1" stroke-miterlimit="4"/><path stroke-linecap="butt" transform="matrix(0.75, 0, 0, 0.75, 0.0000035, 778.316525)" fill="none" stroke-linejoin="miter" d="M -0.00000466667 20.999843 L 1080.00005 20.999843 " stroke="#000000" stroke-width="42" stroke-opacity="1" stroke-miterlimit="4"/><path stroke-linecap="butt" transform="matrix(0.75, 0, 0, 0.75, 0.0000035, 628.79934)" fill="none" stroke-linejoin="miter" d="M -0.00000466667 21.001922 L 1080.00005 21.001922 " stroke="#000000" stroke-width="42" stroke-opacity="1" stroke-miterlimit="4"/><path stroke-linecap="butt" transform="matrix(0.75, 0, 0, 0.75, 56.22181, 477.111908)" fill="none" stroke-linejoin="miter" d="M 0.00112797 21.001832 L 933.969925 21.001832 " stroke="#000000" stroke-width="42" stroke-opacity="1" stroke-miterlimit="4"/><path stroke-linecap="butt" transform="matrix(0.75, -0.000000000000000093, 0.000000000000000093, 0.75, 125.802902, 329.765043)" fill="none" stroke-linejoin="miter" d="M 0.00238071 21.000777 L 747.044085 21.000777 " stroke="#000000" stroke-width="42" stroke-opacity="1" stroke-miterlimit="4"/><path stroke-linecap="butt" transform="matrix(0.75, 0, 0, 0.75, 187.258252, 179.162735)" fill="none" stroke-linejoin="miter" d="M -0.000585572 21.001771 L 588.671319 21.001771 " stroke="#000000" stroke-width="42" stroke-opacity="1" stroke-miterlimit="4"/><path stroke-linecap="butt" transform="matrix(0, -0.75, 0.75, 0, 56.039542, 661.053083)" fill="none" stroke-linejoin="miter" d="M -0.00213968 20.999361 L 224.258288 20.999361 " stroke="#000000" stroke-width="42" stroke-opacity="1" stroke-miterlimit="4"/><path stroke-linecap="butt" transform="matrix(0, -0.75, 0.75, 0, 125.622098, 492.859747)" fill="none" stroke-linejoin="miter" d="M 0.000496273 20.998662 L 190.708839 20.998662 " stroke="#000000" stroke-width="42" stroke-opacity="1" stroke-miterlimit="4"/><path stroke-linecap="butt" transform="matrix(0, -0.75, 0.75, 0, -0.183285, 794.061844)" fill="none" stroke-linejoin="miter" d="M -0.000874598 20.999589 L 199.35851 20.999589 " stroke="#000000" stroke-width="42" stroke-opacity="1" stroke-miterlimit="4"/><path stroke-linecap="butt" transform="matrix(0, -0.75, 0.75, 0, 778.67394, 794.061844)" fill="none" stroke-linejoin="miter" d="M -0.000874598 21.002456 L 199.35851 21.002456 " stroke="#000000" stroke-width="42" stroke-opacity="1" stroke-miterlimit="4"/><path stroke-linecap="butt" transform="matrix(0, -0.75, 0.75, 0, 654.761035, 505.441291)" fill="none" stroke-linejoin="miter" d="M -0.000154237 21.000913 L 190.708189 21.000913 " stroke="#000000" stroke-width="42" stroke-opacity="1" stroke-miterlimit="4"/><path stroke-linecap="butt" transform="matrix(0, -0.75, 0.75, 0, 597.439533, 337.942268)" fill="none" stroke-linejoin="miter" d="M 0.00114873 21.002498 L 190.709492 21.002498 " stroke="#000000" stroke-width="42" stroke-opacity="1" stroke-miterlimit="4"/><path stroke-linecap="butt" transform="matrix(0, -0.75, 0.75, 0, 187.077445, 337.942268)" fill="none" stroke-linejoin="miter" d="M 0.00114873 21.000907 L 190.709492 21.000907 " stroke="#000000" stroke-width="42" stroke-opacity="1" stroke-miterlimit="4"/><path stroke-linecap="butt" transform="matrix(0, -0.75, 0.75, 0, 725.372967, 644.545716)" fill="none" stroke-linejoin="miter" d="M -0.0015459 20.997503 L 224.258882 20.997503 " stroke="#000000" stroke-width="42" stroke-opacity="1" stroke-miterlimit="4"/><path stroke-linecap="butt" transform="matrix(0, -0.75, 0.75, 0, 269.181729, 194.909511)" fill="none" stroke-linejoin="miter" d="M -0.000860341 21.002487 L 259.884569 21.002487 " stroke="#000000" stroke-width="42" stroke-opacity="1" stroke-miterlimit="4"/><path stroke-linecap="butt" transform="matrix(0, -0.75, 0.75, 0, 515.558114, 194.909511)" fill="none" stroke-linejoin="miter" d="M -0.000860341 21.000641 L 259.884569 21.000641 " stroke="#000000" stroke-width="42" stroke-opacity="1" stroke-miterlimit="4"/><path stroke-linecap="butt" transform="matrix(0.000000001309, -0.75, 0.75, 0.000000001309, 350.265485, 194.911474)" fill="none" stroke-linejoin="miter" d="M 0.0017573 21.000188 L 182.892391 21.000187 " stroke="#000000" stroke-width="42" stroke-opacity="1" stroke-miterlimit="4"/><path stroke-linecap="butt" transform="matrix(0.75, 0.000000000000000257, -0.000000000000000257, 0.75, 366.731001, 58.482264)" fill="none" stroke-linejoin="miter" d="M -0.000709734 20.997607 L 124.655547 20.997607 " stroke="#000000" stroke-width="42" stroke-opacity="1" stroke-miterlimit="4"/><path stroke-linecap="butt" transform="matrix(0, -0.75, 0.75, 0, 428.898486, 211.401499)" fill="none" stroke-linejoin="miter" d="M -0.00112638 20.999936 L 182.894716 20.999936 " stroke="#000000" stroke-width="42" stroke-opacity="1" stroke-miterlimit="4"/></svg>